# xmcd
#
# Track frame offsets: 
#        150
#        21106
#        36187
#        54443
#        68148
#        85692
#        101702
#        121293
#        138094
#        154992
#        189106
#        207762
#        227504
#        247417
#        261937
#        278201
#        293269
#
# Disc length: 4212 seconds
#
# Revision: 0
# Processed by: cddbd v1.5.1PL0 Copyright (c) Steve Scherf et al.
# Submitted via: ExactAudioCopy v0.95a5
#
DISCID=e7107211
DTITLE=The Chapped Cheeks - Live From the Swallows Inn
DYEAR=2000
DGENRE=Swing
TTITLE0=Accross the Alley from the Alamo
TTITLE1=Miles and Miles of Texas
TTITLE2=Crazy Arms
TTITLE3=Won't You Ride In My Little Red Wagon
TTITLE4=Green Green Grass of Home
TTITLE5=Sugar Moon
TTITLE6=Folsum Prison Blues
TTITLE7=A Six Pack to Go
TTITLE8=Silver Wings
TTITLE9=Milk Cow Blues
TTITLE10=Cherokee Maiden
TTITLE11=Waltz Across Texas
TTITLE12=Funny How Time Slips Away
TTITLE13=Don't Fence Me In
TTITLE14=Panhandle Rag
TTITLE15=Lonestar Beer and Bob Will's Music
TTITLE16=Route 66
EXTD=
EXTT0=
EXTT1=
EXTT2=
EXTT3=
EXTT4=
EXTT5=
EXTT6=
EXTT7=
EXTT8=
EXTT9=
EXTT10=
EXTT11=
EXTT12=
EXTT13=
EXTT14=
EXTT15=
EXTT16=
PLAYORDER=
